<?xml version="1.0" encoding="utf-8"?>
<!-- Generator: Adobe Illustrator 23.0.0, SVG Export Plug-In . SVG Version: 6.00 Build 0)  -->
<svg version="1.1" id="Ebene_1" xmlns="http://www.w3.org/2000/svg" xmlns:xlink="http://www.w3.org/1999/xlink" x="0px" y="0px"
	 viewBox="0 0 500 500" style="enable-background:new 0 0 500 500;" xml:space="preserve">
<style type="text/css">
	.st0{fill:#8CC63F;}
	.st1{fill:#FFFFFF;}
</style>
<title>facebook-button</title>
<path class="st0" d="M500,250C500,111.9,388.1,0,250,0S0,111.9,0,250c0,125.9,93.1,230.1,214.2,247.4V312.8H166v-66.3h48.2
	l-0.1-39.2c0-54.3,14.7-87.3,78.5-87.3H346v66.3h-33.4c-25,0-26.1,9.3-26.1,26.6l-0.1,33.7H346l-7,66.3h-52.5l0,184.5
	C407.2,479.7,500,375.7,500,250z"/>
<path class="st1" d="M339,312.8l7-66.3h-59.6l0.1-33.7c0-17.3,1.2-26.6,26.1-26.6H346V120h-53.3c-63.9,0-78.6,33-78.6,87.3l0.1,39.2
	H166v66.3h48.2v184.7c24,3.4,48.3,3.4,72.3-0.1l0-184.5L339,312.8z"/>
<polygon class="st1" points="371.3,253.9 397,279.5 371.3,305.2 378.7,312.5 404.3,286.9 411.7,279.5 404.3,272.2 378.7,246.5 "/>
<g>
	<path class="st1" d="M34.7,214.1l-1.4,7.9l8.1,1.4l-0.7,4.1L21,224l2.2-12.9l3.3,0.6l-1.5,8.8l5.1,0.9l1.4-7.9L34.7,214.1z"/>
	<path class="st1" d="M41.5,203l-1.7,7.1l3.7,2.3l-1,4.3l-17.7-12.1l0.9-3.7l21.2-2.5l-1,4.3L41.5,203z M36.8,208.2l1.2-4.9
		l-7.9,0.7L36.8,208.2z"/>
	<path class="st1" d="M52.7,181.5l-1.3,3.9l-15.1,3.3l12.5,4.3l-1.3,3.9l-18.9-6.6l1.3-3.9l15.1-3.3l-12.5-4.3l1.3-3.9L52.7,181.5z"
		/>
	<path class="st1" d="M49.1,171.8l6.4,2.9l-1.7,3.8l-18.3-8.2l3.2-7.2c0.6-1.4,1.4-2.5,2.4-3.3c1-0.8,2-1.3,3.2-1.5
		c1.2-0.1,2.4,0,3.5,0.6c1.8,0.8,2.9,2.1,3.4,3.8c0.5,1.7,0.2,3.6-0.7,5.8L49.1,171.8z M46.1,170.4l1.5-3.4c0.4-1,0.5-1.9,0.3-2.6
		c-0.2-0.7-0.8-1.3-1.7-1.7c-0.9-0.4-1.7-0.5-2.5-0.2c-0.8,0.3-1.4,0.9-1.8,1.8l-1.5,3.5L46.1,170.4z"/>
	<path class="st1" d="M61.9,152.4l-3.4,6.4l3,3.2l-2.1,3.9l-14.1-16.2l1.8-3.4l21.2,2.9l-2.1,3.9L61.9,152.4z M56,156.2l2.4-4.4
		l-7.8-1.3L56,156.2z"/>
	<path class="st1" d="M75.5,133.5c0.3,1.1,0.3,2.4,0,3.8c-0.3,1.4-1,2.8-1.9,4.2c-1,1.5-2.1,2.5-3.5,3.2c-1.4,0.7-2.8,0.9-4.4,0.7
		c-1.6-0.2-3.2-0.8-4.8-1.9l-1.1-0.8c-1.7-1.1-2.9-2.3-3.8-3.7c-0.9-1.4-1.3-2.8-1.2-4.3c0-1.5,0.5-3,1.5-4.4c1.3-2,2.8-3.2,4.5-3.7
		c1.7-0.5,3.5-0.3,5.4,0.7l-2.2,3.4c-1.1-0.5-2-0.6-2.8-0.4c-0.8,0.2-1.5,0.8-2.1,1.7c-0.8,1.2-0.9,2.4-0.4,3.6
		c0.5,1.2,1.6,2.4,3.3,3.5l1.1,0.7c1.8,1.2,3.3,1.7,4.6,1.6c1.3-0.1,2.4-0.8,3.3-2.1c0.9-1.3,1.2-2.4,1-3.3l-2.9-1.9l-2.1,3.2
		l-2.5-1.7l4.3-6.6L75.5,133.5z"/>
	<path class="st1" d="M80,117.6l-4.9,6.3l4.2,3.3l5.7-7.4l2.6,2l-8.3,10.7l-15.8-12.4l8.2-10.6l2.6,2.1l-5.7,7.4l3.8,3l4.9-6.3
		L80,117.6z"/>
	<path class="st1" d="M93.5,115.1l-14.3-14.1l4.9-5.1c1.7-1.8,3.3-2.8,4.9-3c1.5-0.3,3,0.3,4.2,1.5c0.7,0.7,1.1,1.5,1.3,2.4
		c0.2,0.9,0.1,1.8-0.3,2.7c0.9-0.6,1.8-0.8,2.8-0.7c1,0.1,1.9,0.6,2.7,1.4c1.4,1.4,2,2.8,1.8,4.4c-0.1,1.6-1,3.2-2.6,4.8L93.5,115.1
		z M88.1,104l2.1-2.2c1.4-1.5,1.6-2.9,0.4-4c-0.7-0.6-1.3-0.9-2-0.8c-0.7,0.1-1.4,0.6-2.2,1.4l-2,2.1L88.1,104z M90.2,106l3.9,3.8
		l2.5-2.5c0.7-0.7,1-1.4,1.1-2.1c0-0.7-0.2-1.4-0.8-1.9c-1.3-1.3-2.6-1.3-4,0.1L90.2,106z"/>
	<path class="st1" d="M96.4,82l-1.4-1.3c0.5-0.5,0.8-0.9,0.9-1.1s0.1-0.6-0.1-0.8c-0.4-0.5-1.1-0.3-2.1,0.6l-1.1-1.5
		c1.3-1.1,2.4-1.8,3.4-2c1-0.2,1.7,0,2.3,0.6c0.4,0.4,0.5,0.9,0.4,1.4c-0.1,0.5-0.3,1-0.7,1.5l0.6,0.7L96.4,82z M111.7,92l-5.5,4.8
		l1.7,4l-3.3,2.9l-7.5-20.2L100,81l18.8,10.3l-3.3,2.9L111.7,92z M104.9,93.5l3.8-3.3l-6.8-4L104.9,93.5z"/>
	<path class="st1" d="M127.5,73.1c1.2,1.6,1.9,3.2,2.2,4.8c0.3,1.6,0.2,3.1-0.4,4.6c-0.6,1.4-1.6,2.6-2.9,3.6
		c-1.3,1-2.8,1.5-4.3,1.6c-1.5,0.1-3-0.2-4.5-1c-1.4-0.8-2.7-2-3.9-3.5l-0.6-0.8c-1.2-1.6-1.9-3.2-2.2-4.9c-0.3-1.6-0.2-3.2,0.4-4.6
		c0.6-1.4,1.6-2.6,2.9-3.6c1.4-1,2.8-1.5,4.3-1.6c1.5-0.1,3,0.2,4.5,1c1.5,0.8,2.8,2,3.9,3.6L127.5,73.1z M123.6,74.9
		c-1.2-1.7-2.5-2.8-3.7-3.2c-1.2-0.4-2.4-0.3-3.6,0.6c-1.1,0.8-1.7,1.9-1.7,3.2c0,1.3,0.6,2.8,1.8,4.5l0.6,0.8
		c1.2,1.7,2.4,2.7,3.7,3.2c1.3,0.5,2.5,0.3,3.6-0.5c1.1-0.8,1.7-1.9,1.6-3.2c0-1.3-0.7-2.8-1.9-4.5L123.6,74.9z"/>
	<path class="st1" d="M155.4,68l-3.6,2l-4.1-7.6l-7.1,3.9l4.1,7.6l-3.6,2l-9.6-17.7l3.6-2l3.9,7.2l7.1-3.9l-3.9-7.2l3.6-2L155.4,68z
		"/>
	<path class="st1" d="M162.4,64.8l-3.7,1.7l-8.4-18.3l3.7-1.8L162.4,64.8z"/>
	<path class="st1" d="M173.6,50.7l-7.4,2.9l2,5l8.6-3.5l1.2,3.1l-12.5,5l-7.4-18.7l12.4-5l1.2,3.1l-8.6,3.5l1.8,4.5l7.4-2.9
		L173.6,50.7z M168.9,39.2l-2.6,1.1l-2.7-0.9l-1.4,2.5l-2.6,1.1l2.4-4.4l2.2-0.9L168.9,39.2z M167.1,38l-0.7-1.4
		c0.5-0.2,0.9-0.5,1.1-0.7c0.2-0.2,0.2-0.4,0.2-0.6c-0.2-0.5-0.8-0.6-1.9-0.2l-0.5-1.5c1.2-0.5,2.2-0.7,3-0.6
		c0.8,0.1,1.3,0.5,1.5,1.2c0.2,0.4,0.2,0.8,0,1.2c-0.2,0.4-0.5,0.7-1,1l0.3,0.7L167.1,38z"/>
	<path class="st1" d="M179.5,36.7l9,12.6l0.8-15.5l5.2-1.5l5.6,19.3l-4,1.2l-1.5-5.3l-2.3-9.2l-1,15.9l-2.7,0.8l-9.4-12.9l3,9
		l1.5,5.3l-4,1.2l-5.6-19.3L179.5,36.7z"/>
	<path class="st1" d="M226.1,47.1l-4.1,0.6l-9.9-11.9l2,13.1l-4.1,0.6l-3-19.9l4.1-0.6L221,41l-2-13.1l4.1-0.6L226.1,47.1z"/>
	<path class="st1" d="M245.5,45.9l-4.1,0.2l-0.5-8.6l-8,0.5l0.5,8.6l-4.1,0.2l-1.2-20.1l4.1-0.2l0.5,8.2l8-0.5l-0.5-8.2l4.1-0.2
		L245.5,45.9z"/>
	<path class="st1" d="M260.4,42.1l-7.2-0.2l-1.5,4.1l-4.4-0.1l8.1-19.9l3.8,0.1l6.8,20.4l-4.4-0.1L260.4,42.1z M262.6,24.6l0,0.2
		l-3.2-0.1l-2.1-2.1l-2.2,1.9l-3.1-0.1l0-0.2l4.2-3.7l2.3,0.1L262.6,24.6z M254.4,38.5l5,0.2l-2.3-7.6L254.4,38.5z"/>
	<path class="st1" d="M283.6,48.6l-4.1-0.5l-6.3-14.2l-1.6,13.2l-4.1-0.5l2.5-20l4.1,0.5l6.4,14.2l1.6-13.2l4.1,0.5L283.6,48.6z"/>
	<path class="st1" d="M311.3,37.6l-6-1.5l-4,16.3l-4-1l4-16.3l-5.9-1.4l0.8-3.3l15.8,3.9L311.3,37.6z"/>
	<path class="st1" d="M324.7,59.8l-3.9-1.3l2.8-8.2l-7.6-2.6l-2.8,8.2l-3.9-1.3l6.4-19.1l3.9,1.3l-2.6,7.7l7.6,2.6l2.6-7.7l3.9,1.3
		L324.7,59.8z"/>
	<path class="st1" d="M346.5,58.9c-0.8,1.8-1.8,3.3-3.1,4.3c-1.2,1.1-2.6,1.7-4.1,1.9c-1.5,0.2-3,0-4.6-0.7
		c-1.5-0.7-2.7-1.7-3.6-2.9c-0.9-1.3-1.3-2.7-1.4-4.4c-0.1-1.7,0.3-3.4,1.1-5.1l0.4-0.9c0.8-1.8,1.8-3.3,3.1-4.4
		c1.3-1.1,2.6-1.7,4.2-1.9c1.5-0.2,3,0,4.6,0.7c1.5,0.7,2.7,1.7,3.6,2.9c0.9,1.3,1.3,2.7,1.3,4.4c0,1.7-0.3,3.4-1.1,5.2L346.5,58.9z
		 M331.6,66.3c0.2-0.5,0.6-0.8,1.1-1c0.5-0.2,1.1-0.1,1.7,0.2c0.6,0.3,1,0.7,1.3,1.2s0.2,1,0,1.5c-0.2,0.5-0.6,0.8-1.1,1
		c-0.5,0.2-1.1,0.1-1.7-0.2c-0.6-0.3-1-0.7-1.2-1.2C331.4,67.3,331.4,66.8,331.6,66.3z M343.1,56.3c0.9-1.9,1.2-3.6,0.9-4.9
		c-0.2-1.3-1-2.3-2.3-2.8c-1.3-0.6-2.5-0.5-3.6,0.2c-1.1,0.7-2.1,2-3,3.9l-0.4,0.9c-0.8,1.9-1.1,3.5-0.9,4.8c0.2,1.3,1,2.3,2.3,2.9
		c1.3,0.6,2.5,0.5,3.6-0.2c1.1-0.7,2.1-2,3-3.9L343.1,56.3z"/>
	<path class="st1" d="M374.3,62.6L367.5,74c-1.1,1.9-2.6,3-4.4,3.4c-1.8,0.4-3.8,0-5.8-1.3c-2-1.2-3.3-2.7-3.8-4.5
		c-0.5-1.8-0.3-3.6,0.8-5.5l6.9-11.5l3.5,2.1l-6.8,11.4c-0.7,1.1-0.9,2.1-0.7,3c0.2,0.8,0.8,1.6,1.8,2.1c2,1.2,3.6,0.8,4.9-1.3
		l6.8-11.5L374.3,62.6z"/>
	<path class="st1" d="M378.6,76.7l8.6-4.9l3.7,2.6L378.1,81l-4.2,5.9l-3.4-2.5l4.2-5.9l2.1-14.3l3.7,2.7L378.6,76.7z"/>
	<path class="st1" d="M407.4,93.2l-4.6-4.1l-11.1,12.5l-3.1-2.8l11.1-12.5l-4.5-4.1l2.2-2.5l12.1,11L407.4,93.2z"/>
	<path class="st1" d="M400.7,110.4l-2.9-3L412,93.3l2.9,3L400.7,110.4z M417.9,91.5l3.1,3.1l-5.7,0.3l-2.3-2.3L417.9,91.5z"/>
	<path class="st1" d="M413.9,125.2l-2.7-3.1l4.7-14.8l-9.9,8.7l-2.7-3.1l15.1-13.2l2.7,3.1l-4.7,14.8l10-8.7l2.7,3.1L413.9,125.2z"
		/>
	<path class="st1" d="M428.3,136.6l15-4.7l2.6,3.8l-20.5,5.5l-2.4-3.6l12.7-17.1l2.6,3.8L428.3,136.6z"/>
	<path class="st1" d="M432.2,152.3l-2.1-3.6l17.3-10.2l2.1,3.6L432.2,152.3z"/>
	<path class="st1" d="M433.4,161.1c0.5-0.3,1-0.3,1.5-0.1c0.5,0.2,0.9,0.6,1.2,1.2c0.3,0.6,0.4,1.2,0.3,1.7
		c-0.1,0.5-0.4,0.9-0.9,1.2c-0.5,0.2-1,0.3-1.5,0.1c-0.5-0.2-0.9-0.6-1.2-1.2c-0.3-0.6-0.4-1.2-0.2-1.7
		C432.6,161.7,432.9,161.3,433.4,161.1z M447.2,162.2l-3.6-7.1l-4.8,2.5l4.3,8.3l-2.9,1.5l-6.2-12l17.8-9.2l6.1,12l-3,1.5l-4.2-8.3
		l-4.2,2.2l3.6,7.1L447.2,162.2z M458.8,156.4l-0.1,0.1l-1.5-2.8l0.8-2.8l-2.7-1l-1.4-2.8l0.2-0.1l5.2,1.9l1.1,2.1L458.8,156.4z"/>
	<path class="st1" d="M462.3,177.1l-2.4-5.7l-15.4,6.5L443,174l15.4-6.5l-2.3-5.6l3.1-1.3l6.3,15.1L462.3,177.1z"/>
	<path class="st1" d="M454.1,206.9l-1.1-4l10.4-11.4l-12.7,3.7l-1.1-4l19.2-5.6l1.1,4L459.5,201l12.7-3.7l1.1,4L454.1,206.9z"/>
	<path class="st1" d="M461,220.6l-1.4-7.1l-4.3-0.6l-0.8-4.3l21.1,3.6l0.7,3.8l-18.3,11.2l-0.8-4.3L461,220.6z M463.2,213.9l0.9,4.9
		l6.9-3.9L463.2,213.9z"/>
	<path class="st1" d="M478.8,232.1l-14,6.5l14.9,3.8l0.5,5.4l-20,1.8l-0.4-4.1l5.5-0.5l9.4-0.4l-15.4-4.1l-0.3-2.8l14.4-6.8
		l-9.4,1.3l-5.5,0.5l-0.4-4.1l20-1.8L478.8,232.1z"/>
</g>
</svg>
