<?xml version="1.0" encoding="utf-8"?>
<!-- Generator: Adobe Illustrator 23.0.0, SVG Export Plug-In . SVG Version: 6.00 Build 0)  -->
<svg version="1.1" id="Ebene_1" xmlns="http://www.w3.org/2000/svg" xmlns:xlink="http://www.w3.org/1999/xlink" x="0px" y="0px"
	 viewBox="0 0 500 500" style="enable-background:new 0 0 500 500;" xml:space="preserve">
<style type="text/css">
	.st0{fill:#8CC63F;}
	.st1{fill:#FFFFFF;}
</style>
<title>phone-button</title>
<circle class="st0" cx="251.1" cy="251.5" r="250"/>
<g>
	<g>
		<path class="st1" d="M195,147.5h-8.7v-15.1h-12.9v15.1h-8.7v-36.3h8.7v14.4h12.9v-14.4h8.7V147.5z"/>
		<path class="st1" d="M199.1,133.7c0-2.7,0.5-5.1,1.6-7.2s2.5-3.7,4.5-4.8c2-1.1,4.3-1.7,6.9-1.7c4,0,7.2,1.3,9.5,3.7
			c2.3,2.5,3.5,5.9,3.5,10.2v0.3c0,4.2-1.2,7.5-3.5,10c-2.3,2.5-5.5,3.7-9.5,3.7c-3.8,0-6.9-1.1-9.2-3.5c-2.3-2.3-3.6-5.4-3.8-9.4
			L199.1,133.7z M207.4,134.2c0,2.5,0.4,4.3,1.2,5.5s1.9,1.7,3.5,1.7c3,0,4.5-2.3,4.6-6.9v-0.8c0-4.8-1.5-7.3-4.6-7.3
			c-2.8,0-4.3,2.1-4.6,6.3L207.4,134.2z"/>
		<path class="st1" d="M238.5,113.8v6.7h4.4v5.8h-4.4v12.3c0,1,0.2,1.7,0.5,2.1c0.4,0.4,1.1,0.6,2.2,0.6c0.8,0,1.5,0,2.1-0.1v6
			c-1.5,0.5-3.1,0.7-4.7,0.7c-2.9,0-5-0.7-6.4-2c-1.4-1.4-2.1-3.4-2.1-6.2v-13.4h-3.4v-5.8h3.4v-6.7H238.5z"/>
		<path class="st1" d="M255.1,147.5h-8.4v-38.3h8.4V147.5z"/>
		<path class="st1" d="M260.2,113.5c0-1.2,0.4-2.2,1.3-2.9c0.9-0.8,2-1.1,3.4-1.1c1.4,0,2.5,0.4,3.4,1.1c0.9,0.8,1.3,1.7,1.3,2.9
			s-0.4,2.2-1.3,2.9c-0.9,0.8-2,1.1-3.4,1.1c-1.4,0-2.5-0.4-3.4-1.1C260.7,115.7,260.2,114.7,260.2,113.5z M269.2,147.5h-8.4v-27
			h8.4V147.5z"/>
		<path class="st1" d="M282,120.5l0.3,3.2c1.9-2.4,4.4-3.7,7.7-3.7c2.8,0,4.9,0.8,6.3,2.5c1.4,1.7,2.1,4.2,2.2,7.6v17.4H290v-17
			c0-1.4-0.3-2.4-0.8-3c-0.5-0.6-1.5-1-3-1c-1.6,0-2.9,0.6-3.7,1.9v19h-8.4v-27H282z"/>
		<path class="st1" d="M316.1,148c-4.1,0-7.5-1.2-10-3.7c-2.6-2.5-3.8-5.7-3.8-9.6v-0.7c0-2.8,0.5-5.2,1.5-7.3
			c1-2.1,2.5-3.7,4.5-4.9c2-1.2,4.3-1.7,7-1.7c3.8,0,6.8,1.2,9,3.5c2.2,2.4,3.3,5.6,3.3,9.8v3.3h-16.7c0.3,1.5,1,2.7,2,3.6
			c1,0.9,2.3,1.3,3.9,1.3c2.7,0,4.7-0.9,6.2-2.8l3.8,4.5c-1,1.4-2.5,2.6-4.4,3.5C320.4,147.5,318.4,148,316.1,148z M315.2,126.5
			c-2.5,0-3.9,1.6-4.4,4.9h8.5v-0.6c0-1.3-0.3-2.4-1-3.1C317.6,126.8,316.5,126.5,315.2,126.5z"/>
	</g>
	<g>
		<path class="st1" d="M151.1,232.3c0,10.6-2.4,18.8-7.2,24.6c-4.8,5.8-11.5,8.6-20.2,8.6c-8.7,0-15.5-2.9-20.3-8.7
			c-4.8-5.8-7.2-14-7.2-24.5V218c0-10.6,2.4-18.8,7.2-24.6c4.8-5.8,11.5-8.6,20.2-8.6c8.7,0,15.5,2.9,20.2,8.7
			c4.8,5.8,7.2,14,7.2,24.6V232.3z M132.9,215.7c0-5.6-0.7-9.9-2.2-12.7c-1.5-2.8-3.8-4.2-7-4.2c-3.1,0-5.4,1.3-6.8,3.9
			c-1.4,2.6-2.2,6.5-2.3,11.8v20.1c0,5.9,0.7,10.2,2.2,12.9c1.5,2.7,3.8,4.1,7,4.1c3.1,0,5.4-1.3,6.9-4s2.2-6.8,2.3-12.4V215.7z"/>
		<path class="st1" d="M196.4,234.1c-3.9,3.5-8.3,5.3-13.2,5.3c-7.1,0-12.8-2.4-17-7.2c-4.2-4.8-6.3-11.3-6.3-19.3
			c0-5,1.2-9.7,3.5-14c2.3-4.3,5.6-7.7,9.9-10.3c4.2-2.5,8.9-3.8,14-3.8c5.2,0,9.9,1.3,14.1,3.9c4.2,2.6,7.5,6.3,9.8,11.1
			c2.3,4.8,3.5,10.3,3.6,16.5v7c0,8.7-1.7,16.2-5.1,22.6c-3.4,6.4-8.3,11.3-14.5,14.7c-6.3,3.4-13.6,5.1-22,5.1h-1.1V251l3.5-0.1
			C188,250.3,195,244.7,196.4,234.1z M188.2,226.2c4,0,6.8-1.7,8.5-5.1v-7.6c0-5-0.8-8.8-2.5-11.2c-1.7-2.4-4-3.6-6.9-3.6
			c-2.6,0-4.7,1.4-6.4,4.1c-1.7,2.7-2.6,6-2.6,9.9c0,4.1,0.9,7.4,2.6,9.8C182.7,225,185.1,226.2,188.2,226.2z"/>
		<path class="st1" d="M279.2,195.6l-29.4,68.9h-19.2l29.4-64.6h-37.5v-14h56.6V195.6z"/>
		<path class="st1" d="M336.7,233.7h8v14h-8v16.7h-18.2v-16.7h-30.4l-1.1-11.1l31.5-50.6v-0.2h18.2V233.7z M304.3,233.7h14.1v-24.2
			l-1.1,1.8L304.3,233.7z"/>
		<path class="st1" d="M407.3,195.6l-29.4,68.9h-19.2l29.4-64.6h-37.5v-14h56.6V195.6z"/>
		<path class="st1" d="M144.6,338.6h8v14h-8v16.7h-18.2v-16.7H96l-1.1-11.1l31.5-50.6v-0.2h18.2V338.6z M112.3,338.6h14.1v-24.2
			l-1.1,1.8L112.3,338.6z"/>
		<path class="st1" d="M215.2,300.5l-29.4,68.9h-19.2l29.4-64.6h-37.5v-14h56.6V300.5z"/>
		<path class="st1" d="M241.2,322.4h8.6c6.8,0,10.2-3.3,10.2-10c0-2.6-0.8-4.7-2.4-6.3c-1.6-1.6-3.9-2.5-6.9-2.5
			c-2.4,0-4.5,0.7-6.3,2.1s-2.7,3.1-2.7,5.2h-18.2c0-4.1,1.2-7.8,3.5-11.1c2.3-3.2,5.5-5.8,9.6-7.6c4.1-1.8,8.6-2.7,13.5-2.7
			c8.7,0,15.6,2,20.6,6c5,4,7.5,9.5,7.5,16.5c0,3.4-1,6.6-3.1,9.6c-2.1,3-5.1,5.4-9,7.3c4.2,1.5,7.4,3.8,9.8,6.9
			c2.4,3.1,3.6,6.9,3.6,11.4c0,7-2.7,12.6-8.1,16.8c-5.4,4.2-12.5,6.3-21.3,6.3c-5.1,0-9.9-1-14.3-2.9c-4.4-2-7.7-4.7-10-8.2
			c-2.3-3.5-3.4-7.4-3.4-11.8h18.3c0,2.4,1,4.5,2.9,6.3c1.9,1.8,4.3,2.6,7.2,2.6c3.2,0,5.8-0.9,7.7-2.7c1.9-1.8,2.9-4.1,2.9-6.8
			c0-4-1-6.8-3-8.4c-2-1.7-4.7-2.5-8.2-2.5h-8.9V322.4z"/>
		<path class="st1" d="M332.6,289.6v14.3h-0.8c-6.8,0-12.4,1.6-16.8,4.9c-4.4,3.3-7.1,7.8-8.1,13.6c4.1-4,9.3-6,15.5-6
			c6.8,0,12.2,2.5,16.2,7.4c4,5,6,11.5,6,19.5c0,5-1.2,9.6-3.5,13.8c-2.4,4.2-5.7,7.4-9.9,9.8c-4.2,2.4-8.9,3.5-14.1,3.5
			c-5.6,0-10.6-1.3-15-3.8c-4.4-2.5-7.8-6.2-10.3-10.9c-2.4-4.7-3.7-10.1-3.8-16.3v-7.3c0-8.1,1.7-15.4,5.2-21.8
			c3.5-6.5,8.4-11.5,14.9-15.2s13.6-5.5,21.4-5.5H332.6z M316.1,330.3c-2.4,0-4.4,0.6-6,1.7s-2.8,2.5-3.6,4.1v5.5
			c0,9.9,3.4,14.9,10.3,14.9c2.8,0,5.1-1.2,6.9-3.7c1.9-2.5,2.8-5.6,2.8-9.3c0-3.9-0.9-7-2.8-9.4
			C321.8,331.5,319.3,330.3,316.1,330.3z"/>
		<path class="st1" d="M407.2,337.2c0,10.6-2.4,18.8-7.2,24.6c-4.8,5.8-11.5,8.6-20.2,8.6c-8.7,0-15.5-2.9-20.3-8.7
			s-7.2-14-7.2-24.5v-14.4c0-10.6,2.4-18.8,7.2-24.6c4.8-5.8,11.5-8.6,20.2-8.6s15.5,2.9,20.2,8.7c4.8,5.8,7.2,14,7.2,24.6V337.2z
			 M389,320.5c0-5.6-0.7-9.9-2.2-12.7c-1.5-2.8-3.8-4.2-7-4.2c-3.1,0-5.4,1.3-6.8,3.9c-1.4,2.6-2.2,6.5-2.3,11.8v20.1
			c0,5.9,0.7,10.2,2.2,12.9c1.5,2.7,3.8,4.1,7,4.1c3.1,0,5.4-1.3,6.9-4c1.5-2.6,2.2-6.8,2.3-12.4V320.5z"/>
	</g>
</g>
</svg>
